<?xml version="1.0" standalone="no"?>
<!DOCTYPE svg PUBLIC "-//W3C//DTD SVG 20010904//EN"
 "http://www.w3.org/TR/2001/REC-SVG-20010904/DTD/svg10.dtd">
<svg version="1.0" xmlns="http://www.w3.org/2000/svg"
 width="500.000000pt" height="500.000000pt" viewBox="0 0 500.000000 500.000000"
 preserveAspectRatio="xMidYMid meet">

<g transform="translate(0.000000,500.000000) scale(0.100000,-0.100000)"
fill="#000000" stroke="none">
<path d="M1890 3733 c-180 -20 -447 -202 -625 -423 -200 -250 -326 -568 -342
-860 -10 -185 28 -362 113 -532 33 -66 88 -138 105 -138 4 0 24 24 42 53 64
99 147 152 321 202 82 23 159 37 381 65 382 50 610 148 740 319 l37 49 58 -5
c72 -7 100 0 139 33 l30 25 3 -88 c3 -80 5 -88 23 -88 19 0 20 7 22 230 2 127
-1 236 -5 243 -5 7 -16 10 -25 6 -14 -5 -17 -22 -17 -111 0 -72 -5 -113 -15
-133 -31 -59 -103 -92 -157 -71 l-28 10 20 46 c55 128 63 332 20 485 -76 268
-378 584 -635 663 -55 17 -150 26 -205 20z m-380 -778 c9 -10 11 -62 8 -192
-4 -191 -9 -213 -64 -268 -119 -119 -327 -30 -327 140 0 63 30 124 80 162 32
25 45 28 109 28 59 0 78 -4 102 -22 38 -28 42 -20 42 81 0 40 3 76 7 79 11 11
30 8 43 -8z m908 2 c6 -7 11 -90 12 -212 1 -219 1 -220 62 -241 38 -12 44 -26
24 -47 -13 -12 -23 -13 -53 -5 -47 12 -72 33 -89 75 -19 43 -20 413 -2 431 15
15 33 15 46 -1z m-333 -261 c28 -69 54 -128 56 -131 3 -3 30 55 60 128 45 109
58 133 77 135 13 2 25 -3 28 -13 8 -21 -133 -362 -153 -369 -9 -4 -21 -2 -28
4 -16 14 -145 331 -145 358 0 23 18 33 39 22 8 -4 37 -64 66 -134z m-223 105
c53 -37 82 -85 82 -139 l1 -47 -158 -3 -158 -3 7 -22 c15 -49 70 -87 127 -87
18 0 38 5 44 11 18 18 58 7 61 -18 3 -17 -5 -26 -34 -38 -98 -41 -210 3 -255
100 -45 97 -5 205 96 260 44 24 142 16 187 -14z"/>
<path d="M1263 2755 c-43 -18 -73 -69 -73 -122 0 -53 44 -107 100 -124 33 -10
44 -9 83 10 58 28 82 71 75 135 -6 53 -28 82 -75 102 -40 17 -69 17 -110 -1z"/>
<path d="M1694 2754 c-29 -14 -64 -60 -64 -83 0 -7 42 -11 130 -11 72 0 130 3
130 8 0 4 -9 21 -20 39 -35 59 -111 79 -176 47z"/>
<path d="M3122 2944 c-38 -27 -52 -67 -52 -154 l0 -80 -30 0 c-23 0 -30 -5
-30 -19 0 -13 9 -21 30 -26 l30 -7 0 -114 c0 -102 -2 -116 -20 -132 -11 -9
-30 -19 -43 -22 -13 -4 -22 -14 -22 -25 0 -33 61 -24 99 14 31 31 31 32 34
156 l4 125 39 6 c29 5 39 11 39 25 0 15 -8 19 -40 19 l-40 0 0 78 c0 88 13
117 60 127 21 5 30 13 30 26 0 15 -7 19 -33 19 -18 0 -43 -7 -55 -16z"/>
<path d="M3416 2820 c-43 -13 -89 -49 -116 -89 -21 -32 -25 -50 -28 -150 -3
-87 -1 -115 9 -122 29 -17 39 11 39 111 0 139 33 190 133 206 31 6 38 10 35
28 -3 24 -28 29 -72 16z"/>
<path d="M3634 2805 c-79 -40 -123 -126 -105 -208 20 -86 82 -137 173 -144 71
-5 113 11 113 42 0 15 -6 19 -20 16 -11 -2 -46 -5 -77 -8 -53 -4 -59 -3 -92
29 -20 18 -37 44 -38 58 l-3 25 158 3 157 3 0 30 c0 70 -53 137 -129 164 -59
20 -79 19 -137 -10z m146 -45 c22 -11 46 -33 55 -50 30 -57 28 -58 -120 -59
-150 0 -154 2 -115 64 38 62 111 80 180 45z"/>
<path d="M4075 2818 c-74 -26 -121 -84 -131 -161 -5 -38 -2 -56 19 -99 39 -77
82 -103 174 -103 52 0 77 4 88 16 20 20 9 53 -14 43 -29 -13 -112 -16 -139 -5
-33 14 -76 75 -68 96 5 13 26 16 133 15 198 -2 183 -4 183 28 -1 70 -62 145
-139 171 -41 13 -66 13 -106 -1z m126 -60 c36 -20 76 -79 65 -96 -3 -5 -64 -9
-137 -9 l-131 -1 6 30 c17 84 115 122 197 76z"/>
<path d="M4474 2592 c-15 -10 -24 -40 -18 -57 16 -42 75 -38 89 6 12 37 -39
73 -71 51z"/>
</g>
</svg>
